<?xml version="1.0" standalone="no"?>
<!DOCTYPE svg PUBLIC "-//W3C//DTD SVG 20010904//EN"
 "http://www.w3.org/TR/2001/REC-SVG-20010904/DTD/svg10.dtd">
<svg version="1.0" xmlns="http://www.w3.org/2000/svg"
 width="512.000000pt" height="512.000000pt" viewBox="0 0 512.000000 512.000000"
 preserveAspectRatio="xMidYMid meet">
<metadata>
Created by potrace 1.14, written by Peter Selinger 2001-2017
</metadata>
<g transform="translate(0.000000,512.000000) scale(0.100000,-0.100000)"
fill="#000000" stroke="none">
<path d="M3409 4956 c-2 -2 -26 -6 -54 -9 -163 -19 -383 -112 -525 -224 -122
-97 -256 -264 -322 -403 -29 -62 -73 -189 -81 -235 -3 -16 -8 -43 -12 -60 -7
-36 -13 -97 -14 -147 l-1 -38 -830 0 c-817 0 -830 0 -885 -21 -77 -29 -155
-106 -183 -182 l-22 -58 0 -1579 c0 -1567 0 -1580 20 -1634 26 -69 99 -147
165 -178 l50 -23 1565 0 1565 0 49 24 c88 44 166 142 180 227 2 16 5 574 5
1241 l1 1211 71 48 c243 161 421 440 473 739 18 106 14 328 -9 419 -33 138
-91 280 -146 357 -10 15 -19 30 -19 34 0 3 -6 12 -12 19 -7 7 -24 28 -38 47
-39 55 -161 172 -231 221 -121 87 -290 159 -438 189 -51 10 -314 22 -322 15z"/>
</g>
</svg>
